<svg width="180" height="28" viewBox="0 0 180 28" fill="none" xmlns="http://www.w3.org/2000/svg">
<g id="Group">
<path id="Vector" d="M21.0775 3.65053C20.3054 2.75764 19.3915 1.99606 18.3148 1.40255C16.7338 0.530667 14.9218 0.0947266 12.8786 0.0947266C10.4626 0.0947266 8.27762 0.71975 6.32902 1.96454C4.37516 3.20934 2.83624 4.88482 1.70174 6.98049C0.567248 9.08141 0 11.4502 0 14.0868C0 16.7235 0.567248 19.0398 1.70174 21.1407C2.83624 23.2416 4.38042 24.9066 6.32902 26.1304C8.28287 27.3594 10.4626 27.9687 12.8786 27.9687C14.9218 27.9687 16.7443 27.5327 18.341 26.6608C19.4125 26.0778 20.3106 25.332 21.0722 24.4601V27.2859H27.3907V0.51491H21.0722V3.64528L21.0775 3.65053ZM18.2045 18.1364C16.8021 19.5282 15.1949 21.0041 13.6192 22.543C13.4774 22.6849 13.241 22.6849 13.0992 22.543L8.70831 18.1521L8.6978 18.1416C6.07691 15.5207 6.07691 11.2559 8.6978 8.62971C10.0109 7.31664 11.7336 6.6601 13.4511 6.6601C15.1739 6.6601 16.8966 7.31664 18.2045 8.62971C20.8254 11.2506 20.8254 15.5207 18.2045 18.1416V18.1364Z" fill="#110053"/>
<path id="Vector_2" d="M51.7452 1.7175C49.7598 0.577752 47.4856 0 44.9855 0C42.3331 0 39.9065 0.614519 37.7741 1.8278C35.6417 3.04108 33.9347 4.72182 32.7056 6.81748C31.4766 8.91315 30.8516 11.3187 30.8516 13.9711C30.8516 16.6235 31.4871 19.0816 32.7371 21.1773C33.9872 23.2729 35.7309 24.9537 37.9212 26.1669C40.1114 27.3802 42.643 27.9947 45.4424 27.9947C47.6169 27.9947 49.6548 27.6008 51.4931 26.8287C53.2789 26.0777 54.8598 24.9484 56.1939 23.4725L52.0814 19.36C51.2672 20.2739 50.3061 20.9567 49.2188 21.3926C48.0791 21.8496 46.787 22.0807 45.3847 22.0807C43.8247 22.0807 42.4329 21.7498 41.2459 21.1037C40.0588 20.4524 39.1344 19.4913 38.4989 18.2412C38.2521 17.758 38.0525 17.2223 37.8949 16.6498L37.8319 16.4134L57.7591 16.3662C57.8851 15.8357 57.9639 15.3367 58.0007 14.885C58.0375 14.3755 58.0585 13.8818 58.0585 13.4091C58.0585 10.8302 57.5017 8.49822 56.3935 6.47608C55.2905 4.4592 53.7306 2.85725 51.7452 1.7175V1.7175ZM37.8266 11.2872L37.8896 11.0456C38.0315 10.5309 38.21 10.0371 38.4359 9.58544C39.0294 8.37742 39.896 7.432 41.0095 6.78072C42.1177 6.12943 43.4361 5.79854 44.9277 5.79854C46.4194 5.79854 47.5486 6.09267 48.5098 6.67042C49.471 7.24817 50.2378 8.10955 50.7735 9.22304C51.0309 9.75352 51.2305 10.3575 51.3723 11.0141L51.4196 11.2452L37.8266 11.2819V11.2872Z" fill="#110053"/>
<path id="Vector_3" d="M78.858 20.7987C77.8653 21.2399 76.7256 21.4605 75.465 21.4605C74.0889 21.4605 72.8336 21.1296 71.7464 20.4783C70.6539 19.8271 69.7873 18.9342 69.178 17.8207C68.5635 16.7124 68.2536 15.4151 68.2536 13.9655C68.2536 12.5159 68.5635 11.2185 69.178 10.1103C69.7926 8.99682 70.6539 8.11443 71.7517 7.48415C72.8441 6.85388 74.0942 6.53349 75.4703 6.53349C76.6888 6.53349 77.8181 6.74883 78.8318 7.16902C79.7824 7.56294 80.6018 8.1512 81.2688 8.91803L85.8278 4.35904C84.5305 2.95142 83.0073 1.86945 81.2951 1.13938C79.5303 0.383048 77.566 0.00488281 75.4703 0.00488281C72.7444 0.00488281 70.26 0.619402 68.0908 1.83268C65.9216 3.04596 64.1831 4.73195 62.9383 6.84863C61.6883 8.96005 61.0527 11.3761 61.0527 14.0285C61.0527 16.6809 61.6883 18.9814 62.9383 21.0981C64.1884 23.2148 65.9216 24.9113 68.0961 26.1403C70.2653 27.3746 72.7286 27.9996 75.4178 27.9996C77.5502 27.9996 79.5408 27.6005 81.3266 26.8074C83.0546 26.0405 84.5725 24.9375 85.8331 23.5299L81.3791 19.0182C80.6438 19.7903 79.8034 20.389 78.8685 20.7987H78.858Z" fill="#110053"/>
<path id="Vector_4" d="M104.122 20.7987C103.129 21.2399 101.989 21.4605 100.729 21.4605C99.3526 21.4605 98.0973 21.1296 97.0101 20.4783C95.9176 19.8271 95.051 18.9342 94.4417 17.8207C93.8272 16.7124 93.5173 15.4151 93.5173 13.9655C93.5173 12.5159 93.8272 11.2185 94.4417 10.1103C95.0562 8.99682 95.9176 8.11443 97.0101 7.48415C98.1026 6.85388 99.3526 6.53349 100.729 6.53349C101.947 6.53349 103.076 6.74883 104.09 7.16902C104.804 7.4684 105.445 7.87282 106.007 8.3823L110.566 3.8233C109.39 2.6783 108.045 1.77491 106.559 1.13938C104.789 0.383048 102.83 0.00488281 100.734 0.00488281C98.008 0.00488281 95.5237 0.619402 93.3545 1.83268C91.1853 3.04596 89.4468 4.73195 88.202 6.84863C86.9519 8.96005 86.3164 11.3761 86.3164 14.0285C86.3164 16.6809 86.9519 18.9814 88.202 21.0981C89.452 23.2148 91.1853 24.9113 93.3597 26.1403C95.5289 27.3746 97.9923 27.9996 100.681 27.9996C102.814 27.9996 104.804 27.6005 106.59 26.8074C108.318 26.0405 109.836 24.9375 111.097 23.5299L106.643 19.0182C105.907 19.7903 105.067 20.389 104.132 20.7987H104.122Z" fill="#110053"/>
<path id="Vector_5" d="M117.069 6.13965C115.226 6.13965 113.377 6.84346 111.975 8.25107C109.165 11.0611 109.165 15.6306 111.975 18.4458C111.975 18.4458 111.985 18.4563 111.99 18.4563L116.696 23.1623C116.849 23.3147 117.101 23.3147 117.253 23.1623C118.939 21.5131 120.662 19.9322 122.169 18.4405C124.979 15.6306 124.979 11.0558 122.169 8.24582C120.762 6.8382 118.918 6.13965 117.075 6.13965H117.069Z" fill="#110053"/>
<path id="Vector_6" d="M135.085 6.34993C134.859 6.50749 134.554 6.58628 134.176 6.58628C133.772 6.58628 133.436 6.50749 133.173 6.35518C132.91 6.20286 132.684 5.98752 132.495 5.70914L131.729 6.47598C132.028 6.85415 132.369 7.14302 132.753 7.34261C133.131 7.53694 133.593 7.63674 134.139 7.63674C134.88 7.63674 135.468 7.45816 135.904 7.09575C136.34 6.73334 136.561 6.24488 136.561 5.63036C136.561 5.2627 136.503 4.95807 136.382 4.71646C136.261 4.47485 136.109 4.27527 135.915 4.12295C135.72 3.97063 135.51 3.84458 135.274 3.74479C135.037 3.64499 134.806 3.5557 134.575 3.47692C134.344 3.39813 134.129 3.3141 133.934 3.22481C133.74 3.13552 133.583 3.02522 133.467 2.89917C133.346 2.77311 133.288 2.59978 133.288 2.39494C133.288 2.14809 133.383 1.95375 133.577 1.81194C133.772 1.67538 134.04 1.6071 134.381 1.6071C134.654 1.6071 134.901 1.65962 135.116 1.76992C135.332 1.88022 135.536 2.04304 135.731 2.26889L136.498 1.50205C136.277 1.22893 135.983 0.997834 135.626 0.824508C135.269 0.64593 134.864 0.556641 134.412 0.556641C133.992 0.556641 133.614 0.630173 133.273 0.78249C132.931 0.934806 132.663 1.15015 132.459 1.43903C132.259 1.72265 132.159 2.0693 132.159 2.47898C132.159 2.83089 132.217 3.12501 132.338 3.35612C132.459 3.58722 132.611 3.77105 132.805 3.91811C133 4.05992 133.21 4.18073 133.446 4.27527C133.677 4.36981 133.913 4.45385 134.145 4.53263C134.376 4.60616 134.591 4.69545 134.785 4.78999C134.98 4.88453 135.137 5.00534 135.253 5.14715C135.374 5.28896 135.431 5.47804 135.431 5.70914C135.431 5.98226 135.316 6.20286 135.09 6.36043L135.085 6.34993Z" fill="#110053"/>
<path id="Vector_7" d="M137.904 7.54201H138.986V3.80238H140.115V2.81495H138.986V0.850586H137.904V2.81495H136.77V3.80238H137.904V7.54201Z" fill="#110053"/>
<path id="Vector_8" d="M141.618 7.37442C141.928 7.553 142.285 7.64229 142.684 7.64229C143.083 7.64229 143.451 7.553 143.755 7.37968C144.06 7.20635 144.307 6.96474 144.48 6.64961C144.654 6.33447 144.743 5.97731 144.743 5.56238V2.81543H143.661V5.50986C143.661 5.85651 143.577 6.12438 143.409 6.31346C143.241 6.50254 142.999 6.59183 142.684 6.59183C142.479 6.59183 142.306 6.54981 142.159 6.46578C142.012 6.38174 141.901 6.25569 141.823 6.09812C141.744 5.94055 141.707 5.74096 141.707 5.51511V2.82068H140.625V5.56763C140.625 5.97206 140.714 6.33447 140.888 6.64435C141.061 6.95424 141.303 7.2011 141.618 7.37968V7.37442Z" fill="#110053"/>
<path id="Vector_9" d="M146.548 7.31128C146.895 7.52662 147.278 7.63692 147.704 7.63692C148.066 7.63692 148.387 7.55814 148.67 7.40582C148.865 7.30078 149.017 7.15896 149.154 7.00139V7.54238H150.236V0.457031H149.154V3.3668C149.017 3.20398 148.859 3.06217 148.665 2.95187C148.387 2.79956 148.066 2.72077 147.704 2.72077C147.278 2.72077 146.89 2.83107 146.548 3.05167C146.202 3.27226 145.934 3.56639 145.729 3.9393C145.529 4.31222 145.43 4.72715 145.43 5.1946C145.43 5.66206 145.529 6.06649 145.729 6.4394C145.929 6.81231 146.202 7.10119 146.548 7.32178V7.31128ZM146.716 4.42777C146.832 4.21242 146.99 4.04435 147.189 3.92355C147.389 3.80274 147.625 3.73972 147.893 3.73972C148.161 3.73972 148.387 3.80274 148.586 3.92355C148.786 4.04435 148.943 4.21242 149.054 4.42777C149.164 4.64311 149.222 4.89522 149.222 5.17359C149.222 5.45197 149.164 5.70408 149.054 5.91942C148.943 6.13477 148.786 6.30284 148.586 6.42364C148.387 6.54444 148.15 6.60747 147.883 6.60747C147.615 6.60747 147.389 6.54444 147.189 6.42364C146.99 6.30284 146.832 6.13477 146.716 5.91942C146.601 5.70408 146.543 5.45197 146.543 5.17359C146.543 4.89522 146.601 4.64311 146.716 4.42777V4.42777Z" fill="#110053"/>
<path id="Vector_10" d="M151.375 9.50686H152.572L153.45 7.58977L155.645 2.81543H154.442L153.166 5.89328L151.953 2.81543H150.766L152.562 7.06454L151.375 9.50686Z" fill="#110053"/>
<path id="Vector_11" d="M136.57 17.3802V12.6584H135.488V13.2046C135.352 13.0418 135.194 12.9 135 12.7897C134.721 12.6374 134.401 12.5586 134.039 12.5586C133.613 12.5586 133.224 12.6689 132.883 12.8895C132.542 13.1101 132.268 13.4042 132.069 13.7771C131.869 14.15 131.77 14.565 131.77 15.0324C131.77 15.4999 131.869 15.9043 132.069 16.2772C132.268 16.6501 132.542 16.939 132.883 17.1596C133.224 17.3802 133.613 17.4852 134.039 17.4852C134.401 17.4852 134.721 17.4065 135.005 17.2541C135.199 17.1491 135.352 17.0073 135.488 16.8497V17.3907H136.57V17.3802ZM135.189 16.0514C134.942 16.3192 134.622 16.4558 134.217 16.4558C133.954 16.4558 133.723 16.3928 133.524 16.272C133.324 16.1512 133.167 15.9831 133.051 15.7677C132.936 15.5524 132.878 15.3003 132.878 15.0219C132.878 14.7435 132.936 14.4914 133.051 14.2761C133.167 14.0608 133.324 13.8927 133.524 13.7719C133.723 13.6511 133.954 13.588 134.217 13.588C134.48 13.588 134.721 13.6511 134.921 13.7719C135.12 13.8927 135.278 14.0608 135.388 14.2761C135.499 14.4914 135.556 14.7435 135.556 15.0219C135.556 15.4421 135.436 15.7888 135.189 16.0566V16.0514Z" fill="#110053"/>
<path id="Vector_12" d="M142.431 15.0266C142.431 14.5592 142.332 14.1442 142.132 13.7713C141.932 13.3984 141.659 13.1043 141.318 12.8837C140.971 12.6631 140.588 12.5528 140.162 12.5528C139.811 12.5528 139.49 12.6316 139.207 12.7839C139.012 12.8889 138.855 13.036 138.713 13.1988V10.2891H137.631V17.3744H138.713V16.8334C138.849 16.991 139.002 17.1328 139.196 17.2379C139.48 17.3902 139.8 17.469 140.162 17.469C140.588 17.469 140.977 17.3587 141.318 17.1433C141.665 16.928 141.932 16.6338 142.132 16.2609C142.332 15.888 142.431 15.4731 142.431 15.0161V15.0266ZM141.15 15.7672C141.034 15.9826 140.877 16.1506 140.677 16.2714C140.478 16.3922 140.246 16.4553 139.984 16.4553C139.721 16.4553 139.49 16.3922 139.285 16.2714C139.08 16.1506 138.923 15.9826 138.813 15.7672C138.702 15.5519 138.645 15.2998 138.645 15.0214C138.645 14.743 138.702 14.4909 138.813 14.2756C138.923 14.0602 139.08 13.8921 139.285 13.7713C139.49 13.6505 139.721 13.5875 139.984 13.5875C140.246 13.5875 140.478 13.6505 140.677 13.7713C140.877 13.8921 141.034 14.0602 141.15 14.2756C141.265 14.4909 141.323 14.743 141.323 15.0214C141.323 15.2998 141.265 15.5519 141.15 15.7672Z" fill="#110053"/>
<path id="Vector_13" d="M145.527 12.558C144.991 12.558 144.587 12.7418 144.319 13.1147C144.309 13.1252 144.303 13.141 144.293 13.1567V12.6578H143.211V17.3796H144.293V14.7534C144.293 14.349 144.393 14.0496 144.587 13.8553C144.781 13.6662 145.033 13.5717 145.333 13.5717C145.469 13.5717 145.59 13.5927 145.695 13.6295C145.8 13.6662 145.895 13.7345 145.979 13.8238L146.688 13.0937C146.525 12.9046 146.347 12.7681 146.157 12.6788C145.968 12.5948 145.753 12.5527 145.517 12.5527L145.527 12.558Z" fill="#110053"/>
<path id="Vector_14" d="M151.677 15.0056C151.677 14.5486 151.567 14.1337 151.346 13.7608C151.125 13.3879 150.831 13.099 150.453 12.8784C150.075 12.6578 149.66 12.5527 149.193 12.5527C148.725 12.5527 148.315 12.663 147.943 12.8836C147.57 13.1042 147.27 13.3984 147.05 13.766C146.829 14.1337 146.719 14.5486 146.719 15.0056C146.719 15.4625 146.829 15.8827 147.05 16.2556C147.27 16.6285 147.564 16.9279 147.943 17.1485C148.315 17.3691 148.73 17.4794 149.193 17.4794C149.655 17.4794 150.08 17.3691 150.453 17.1485C150.826 16.9279 151.125 16.6338 151.346 16.2556C151.567 15.8827 151.677 15.4678 151.677 15.0056ZM150.395 15.7461C150.28 15.9615 150.122 16.1295 149.912 16.2504C149.702 16.3712 149.466 16.4342 149.198 16.4342C148.93 16.4342 148.699 16.3712 148.494 16.2504C148.289 16.1295 148.126 15.9615 148.011 15.7461C147.895 15.5308 147.837 15.2839 147.837 15.0056C147.837 14.7272 147.895 14.4856 148.011 14.2755C148.126 14.0654 148.284 13.9026 148.494 13.7765C148.699 13.6557 148.935 13.5927 149.198 13.5927C149.46 13.5927 149.702 13.6557 149.907 13.7765C150.112 13.8973 150.269 14.0654 150.39 14.2755C150.506 14.4856 150.569 14.7272 150.569 15.0056C150.569 15.2839 150.511 15.5255 150.395 15.7461Z" fill="#110053"/>
<path id="Vector_15" d="M156.949 17.3802V12.6584H155.867V13.2046C155.731 13.0418 155.573 12.9 155.379 12.7897C155.1 12.6374 154.78 12.5586 154.417 12.5586C153.992 12.5586 153.603 12.6689 153.262 12.8895C152.921 13.1101 152.647 13.4042 152.448 13.7771C152.248 14.15 152.148 14.565 152.148 15.0324C152.148 15.4999 152.248 15.9043 152.448 16.2772C152.647 16.6501 152.921 16.939 153.262 17.1596C153.603 17.3802 153.992 17.4852 154.417 17.4852C154.78 17.4852 155.1 17.4065 155.384 17.2541C155.578 17.1491 155.731 17.0073 155.867 16.8497V17.3907H156.949V17.3802ZM155.568 16.0514C155.321 16.3192 155 16.4558 154.596 16.4558C154.333 16.4558 154.102 16.3928 153.903 16.272C153.703 16.1512 153.546 15.9831 153.43 15.7677C153.314 15.5524 153.257 15.3003 153.257 15.0219C153.257 14.7435 153.314 14.4914 153.43 14.2761C153.546 14.0608 153.703 13.8927 153.903 13.7719C154.102 13.6511 154.333 13.588 154.596 13.588C154.859 13.588 155.1 13.6511 155.3 13.7719C155.499 13.8927 155.657 14.0608 155.767 14.2761C155.878 14.4914 155.935 14.7435 155.935 15.0219C155.935 15.4421 155.815 15.7888 155.568 16.0566V16.0514Z" fill="#110053"/>
<path id="Vector_16" d="M162.536 17.3803V10.2949H161.454V13.2047C161.318 13.0419 161.16 12.9001 160.966 12.7898C160.688 12.6374 160.367 12.5587 160.005 12.5587C159.579 12.5587 159.191 12.669 158.849 12.8896C158.508 13.1102 158.235 13.4043 158.03 13.7772C157.83 14.1501 157.73 14.565 157.73 15.0325C157.73 15.4999 157.83 15.9044 158.03 16.2773C158.229 16.6502 158.503 16.9391 158.849 17.1597C159.196 17.3803 159.579 17.4853 160.005 17.4853C160.367 17.4853 160.688 17.4065 160.971 17.2542C161.165 17.1492 161.318 17.0074 161.454 16.8498V17.3908H162.536V17.3803ZM160.887 16.272C160.688 16.3928 160.451 16.4559 160.183 16.4559C159.915 16.4559 159.69 16.3928 159.49 16.272C159.29 16.1512 159.133 15.9832 159.017 15.7678C158.902 15.5525 158.844 15.3004 158.844 15.022C158.844 14.7436 158.902 14.4915 159.017 14.2762C159.133 14.0608 159.29 13.8927 159.49 13.7719C159.69 13.6511 159.926 13.5881 160.194 13.5881C160.462 13.5881 160.688 13.6511 160.887 13.7719C161.087 13.8927 161.244 14.0608 161.355 14.2762C161.465 14.4915 161.523 14.7436 161.523 15.022C161.523 15.3004 161.465 15.5525 161.355 15.7678C161.244 15.9832 161.087 16.1512 160.887 16.272Z" fill="#110053"/>
<path id="Vector_17" d="M133.53 23.6245C133.735 23.5037 133.976 23.4407 134.244 23.4407C134.475 23.4407 134.685 23.4827 134.88 23.5615C135.074 23.6456 135.237 23.7664 135.379 23.9292L136.088 23.2096C135.867 22.947 135.594 22.7474 135.274 22.6056C134.953 22.4638 134.612 22.3955 134.244 22.3955C133.777 22.3955 133.356 22.5058 132.978 22.7211C132.6 22.9365 132.306 23.2306 132.085 23.6035C131.865 23.9764 131.76 24.3914 131.76 24.8588C131.76 25.3263 131.87 25.736 132.085 26.1089C132.301 26.4818 132.6 26.7759 132.978 26.9965C133.356 27.2119 133.777 27.3222 134.244 27.3222C134.612 27.3222 134.953 27.2539 135.274 27.1121C135.594 26.9703 135.862 26.7707 136.088 26.5081L135.379 25.7885C135.242 25.9513 135.074 26.0774 134.88 26.1562C134.685 26.2402 134.475 26.277 134.244 26.277C133.976 26.277 133.74 26.2139 133.53 26.0931C133.32 25.9723 133.162 25.8042 133.047 25.5889C132.931 25.3736 132.873 25.132 132.873 24.8536C132.873 24.5752 132.931 24.3231 133.047 24.113C133.162 23.9029 133.32 23.7401 133.53 23.614V23.6245Z" fill="#110053"/>
<path id="Vector_18" d="M140.025 22.7211C139.652 22.5058 139.232 22.3955 138.765 22.3955C138.297 22.3955 137.888 22.5058 137.515 22.7264C137.142 22.947 136.843 23.2411 136.622 23.6088C136.401 23.9765 136.291 24.3914 136.291 24.8483C136.291 25.3053 136.401 25.7255 136.622 26.0984C136.843 26.4713 137.137 26.7707 137.515 26.9913C137.888 27.2119 138.303 27.3222 138.765 27.3222C139.227 27.3222 139.652 27.2119 140.025 26.9913C140.398 26.7707 140.698 26.4765 140.918 26.0984C141.139 25.7202 141.249 25.3105 141.249 24.8483C141.249 24.3861 141.139 23.9764 140.918 23.6035C140.698 23.2306 140.404 22.9417 140.025 22.7211V22.7211ZM139.962 25.5837C139.847 25.799 139.689 25.9671 139.479 26.0879C139.274 26.2087 139.033 26.2717 138.765 26.2717C138.497 26.2717 138.266 26.2087 138.061 26.0879C137.856 25.9671 137.693 25.799 137.578 25.5837C137.462 25.3683 137.405 25.1215 137.405 24.8431C137.405 24.5647 137.462 24.3231 137.578 24.113C137.693 23.9029 137.851 23.7401 138.061 23.614C138.266 23.4932 138.502 23.4302 138.765 23.4302C139.027 23.4302 139.269 23.4932 139.474 23.614C139.679 23.7348 139.836 23.9029 139.957 24.113C140.073 24.3231 140.136 24.5647 140.136 24.8431C140.136 25.1215 140.078 25.3631 139.962 25.5837Z" fill="#110053"/>
<path id="Vector_19" d="M145.447 22.6686C145.174 22.49 144.858 22.3955 144.501 22.3955C144.144 22.3955 143.84 22.4743 143.561 22.6371C143.377 22.7422 143.225 22.8892 143.094 23.0468V22.4953H142.012V27.2171H143.094V24.4912C143.094 24.2811 143.141 24.092 143.23 23.9292C143.32 23.7664 143.451 23.635 143.614 23.5458C143.776 23.4565 143.966 23.4092 144.176 23.4092C144.491 23.4092 144.748 23.509 144.948 23.7138C145.147 23.9187 145.247 24.176 145.247 24.4912V27.2171H146.329V24.2548C146.329 23.9449 146.25 23.6508 146.093 23.3619C145.935 23.0731 145.72 22.842 145.441 22.6634L145.447 22.6686Z" fill="#110053"/>
<path id="Vector_20" d="M148.368 23.4775C148.483 23.4145 148.651 23.3777 148.872 23.3777C149.103 23.3777 149.303 23.4197 149.481 23.5037C149.66 23.5878 149.817 23.7191 149.954 23.8872L150.642 23.1991C150.443 22.9312 150.201 22.7264 149.907 22.5951C149.613 22.4585 149.277 22.3955 148.898 22.3955C148.52 22.3955 148.226 22.4533 147.969 22.5741C147.711 22.6949 147.512 22.8577 147.37 23.0783C147.228 23.2989 147.16 23.5563 147.16 23.8556C147.16 24.1393 147.218 24.3651 147.338 24.5437C147.459 24.7223 147.612 24.8588 147.795 24.9639C147.984 25.0637 148.179 25.1477 148.384 25.2055C148.588 25.2633 148.788 25.321 148.972 25.3788C149.161 25.4366 149.313 25.4996 149.429 25.5784C149.544 25.6572 149.607 25.7675 149.607 25.9145C149.607 26.0616 149.544 26.1562 149.418 26.2297C149.292 26.3032 149.108 26.34 148.867 26.34C148.599 26.34 148.357 26.2927 148.142 26.1982C147.927 26.1036 147.738 25.9618 147.575 25.7727L146.887 26.4608C147.039 26.6446 147.212 26.8022 147.417 26.9282C147.622 27.0543 147.843 27.1541 148.084 27.2224C148.326 27.2906 148.578 27.3274 148.841 27.3274C149.392 27.3274 149.828 27.1909 150.148 26.923C150.469 26.6551 150.632 26.2875 150.632 25.8305C150.632 25.5416 150.574 25.3053 150.453 25.1267C150.337 24.9481 150.18 24.8011 149.996 24.696C149.812 24.591 149.613 24.5017 149.408 24.4387C149.203 24.3756 149.003 24.3178 148.82 24.2653C148.63 24.2128 148.478 24.1498 148.363 24.0762C148.242 24.0027 148.184 23.9029 148.184 23.7716C148.184 23.6403 148.242 23.551 148.363 23.488L148.368 23.4775Z" fill="#110053"/>
<path id="Vector_21" d="M154.356 25.1902C154.356 25.5368 154.272 25.8047 154.104 25.9938C153.936 26.1828 153.694 26.2721 153.379 26.2721C153.174 26.2721 153.001 26.2301 152.854 26.1461C152.707 26.062 152.597 25.936 152.518 25.7784C152.444 25.6156 152.402 25.4213 152.402 25.1954V22.501H151.32V25.2479C151.32 25.6524 151.41 26.0148 151.583 26.3246C151.756 26.6345 151.998 26.8814 152.313 27.06C152.623 27.2385 152.98 27.3278 153.379 27.3278C153.778 27.3278 154.146 27.2385 154.451 27.0652C154.755 26.8919 155.002 26.6503 155.175 26.3352C155.349 26.02 155.438 25.6629 155.438 25.2479V22.501H154.356V25.1954V25.1902Z" fill="#110053"/>
<path id="Vector_22" d="M157.512 20.1318H156.43V27.2172H157.512V20.1318Z" fill="#110053"/>
<path id="Vector_23" d="M160.291 20.5264H159.203V22.496H158.074V23.4782H159.203V27.2178H160.291V23.4782H161.42V22.496H160.291V20.5264Z" fill="#110053"/>
<path id="Vector_24" d="M165.427 23.0415C165.29 22.8787 165.133 22.7369 164.939 22.6266C164.66 22.4743 164.34 22.3955 163.977 22.3955C163.552 22.3955 163.163 22.5058 162.822 22.7264C162.475 22.947 162.207 23.2411 162.003 23.614C161.803 23.987 161.703 24.4019 161.703 24.8693C161.703 25.3368 161.803 25.7412 162.003 26.1141C162.202 26.487 162.475 26.7759 162.822 26.9965C163.169 27.2119 163.552 27.3222 163.977 27.3222C164.34 27.3222 164.66 27.2434 164.944 27.0911C165.138 26.986 165.29 26.8442 165.427 26.6866V27.2276H166.509V22.5058H165.427V23.052V23.0415ZM165.128 25.8883C164.881 26.1562 164.56 26.2927 164.156 26.2927C163.893 26.2927 163.662 26.2297 163.463 26.1089C163.263 25.9881 163.105 25.82 162.99 25.6047C162.874 25.3893 162.817 25.1372 162.817 24.8588C162.817 24.5805 162.874 24.3284 162.99 24.113C163.105 23.8977 163.263 23.7296 163.463 23.6088C163.662 23.488 163.893 23.425 164.156 23.425C164.419 23.425 164.66 23.488 164.86 23.6088C165.059 23.7296 165.217 23.8977 165.327 24.113C165.438 24.3284 165.495 24.5805 165.495 24.8588C165.495 25.279 165.374 25.6257 165.128 25.8935V25.8883Z" fill="#110053"/>
<path id="Vector_25" d="M171.005 22.6686C170.732 22.49 170.417 22.3955 170.06 22.3955C169.703 22.3955 169.398 22.4743 169.12 22.6371C168.936 22.7422 168.784 22.8892 168.652 23.0468V22.4953H167.57V27.2171H168.652V24.4912C168.652 24.2811 168.7 24.092 168.789 23.9292C168.878 23.7664 169.009 23.635 169.172 23.5458C169.335 23.4565 169.524 23.4092 169.734 23.4092C170.049 23.4092 170.307 23.509 170.506 23.7138C170.706 23.9187 170.806 24.176 170.806 24.4912V27.2171H171.888V24.2548C171.888 23.9449 171.809 23.6508 171.651 23.3619C171.494 23.0783 171.278 22.842 171 22.6634L171.005 22.6686Z" fill="#110053"/>
<path id="Vector_26" d="M174.571 20.5264H173.489V22.496H172.359V23.4782H173.489V27.2178H174.571V23.4782H175.705V22.496H174.571V20.5264Z" fill="#110053"/>
<path id="Vector_27" d="M179.044 24.6855C178.855 24.5752 178.661 24.4912 178.456 24.4281C178.251 24.3651 178.052 24.3073 177.868 24.2548C177.679 24.2023 177.526 24.1393 177.411 24.0657C177.295 23.9922 177.232 23.8924 177.232 23.7611C177.232 23.6298 177.29 23.5405 177.411 23.4775C177.532 23.4145 177.694 23.3777 177.915 23.3777C178.146 23.3777 178.346 23.4197 178.524 23.5037C178.703 23.5878 178.86 23.7191 178.997 23.8872L179.685 23.1991C179.491 22.9312 179.244 22.7264 178.95 22.5951C178.656 22.4585 178.319 22.3955 177.941 22.3955C177.563 22.3955 177.269 22.4533 177.012 22.5741C176.754 22.6949 176.555 22.8577 176.413 23.0783C176.271 23.2937 176.203 23.5563 176.203 23.8556C176.203 24.1393 176.261 24.3651 176.381 24.5437C176.502 24.7223 176.655 24.8588 176.838 24.9639C177.027 25.0637 177.222 25.1477 177.427 25.2055C177.631 25.2633 177.831 25.321 178.015 25.3788C178.204 25.4366 178.356 25.4996 178.472 25.5784C178.587 25.6572 178.65 25.7675 178.65 25.9145C178.65 26.0616 178.587 26.1562 178.461 26.2297C178.335 26.3032 178.151 26.34 177.91 26.34C177.642 26.34 177.4 26.2927 177.185 26.1982C176.97 26.1036 176.781 25.9618 176.618 25.7727L175.93 26.4608C176.082 26.6446 176.255 26.8022 176.46 26.9282C176.665 27.0543 176.886 27.1541 177.127 27.2224C177.369 27.2906 177.621 27.3274 177.884 27.3274C178.435 27.3274 178.871 27.1909 179.191 26.923C179.512 26.6551 179.675 26.2875 179.675 25.8305C179.675 25.5416 179.617 25.3053 179.496 25.1267C179.375 24.9481 179.223 24.8011 179.039 24.696L179.044 24.6855Z" fill="#110053"/>
</g>
</svg>
