<?xml version="1.0" encoding="utf-8"?><svg xmlns="http://www.w3.org/2000/svg" width="152" height="50" viewBox="0 0 152 50"><path d="M798.606,802.356V771.248h15.586q6.079,0,9.719,2.2a6.654,6.654,0,0,1,3.638,5.893q0,5.651-7.806,7.361,4.008,1.276,5.191,2.8t1.607,5.926q.5,5.243,2.044,6.928H817.167a11.966,11.966,0,0,1-1.09-5.4l-.053-1.845-.052-2.324q0-5.379-5.045-5.379h-1.8v14.95Zm10.516-17.525h2.124q5.973,0,5.973-5.356t-5.973-5.356h-2.124Z" transform="translate(-723.46 -768.82)" fill="#131948"/><path d="M1000.108,771.248v31.108H989.593V771.248Z" transform="translate(-880.062 -768.82)" fill="#131948"/><path d="M1092.185,771.248v3.121h-8.9v27.987h-11.151V774.369h-8.948v-3.121Z" transform="translate(-940.409 -768.82)" fill="#131948"/><path d="M670.268,970.537v11.6h-3.374v-.726a2.949,2.949,0,0,1-2.274.921q-3.145,0-3.144-4.37,0-4.494,3.328-4.494a2.47,2.47,0,0,1,2.09,1.048v-3.8Q668.42,970.711,670.268,970.537ZM665.9,974.7q-.851,0-.85,1.415l-.065,1.79.037,1.631q0,1.565.961,1.565c.623,0,.934-.511.934-1.54l.047-2.057-.075-1.406Q666.736,974.694,665.9,974.7Z" transform="translate(-611.019 -932.328)" fill="#9a0c19"/><path d="M729.475,986.931v8.653H726.1v-1.347a3.626,3.626,0,0,1-3,1.507q-2.47,0-2.469-2.177v-6.418q1.7-.066,3.374-.218v6.561q0,.855.573.854,1.517,0,1.517-2.947v-4.251Q727.791,987.083,729.475,986.931Z" transform="translate(-659.528 -945.779)" fill="#9a0c19"/><path d="M784.892,991.713l1.425.4.008.343q0,3.212-3.884,3.212-4.6,0-4.6-4.225a4.408,4.408,0,0,1,1.341-3.376,5.034,5.034,0,0,1,3.6-1.26q3.246,0,3.245,2.66l-1.581.695.019-.8q0-1.807-1.341-1.808-1.774,0-1.775,3.548a8.051,8.051,0,0,0,.379,3.009,1.406,1.406,0,0,0,1.4.816q1.878,0,1.877-2.2A7.4,7.4,0,0,0,784.892,991.713Z" transform="translate(-706.43 -945.673)" fill="#9a0c19"/><path d="M838.558,995.177a7.2,7.2,0,0,1-2.413.436q-1.74,0-2.145-.979a2.962,2.962,0,0,1-2.424,1.021q-2.948,0-2.949-2.479,0-1.88,2.7-2.644,2.476-.7,2.477-1.689,0-1.3-1.425-1.3-1.643,0-1.645,1.255a2.973,2.973,0,0,0,.258,1.037l-1.673-.293a4.472,4.472,0,0,1-.064-.735q0-2.009,4.05-2.008,3.846,0,3.846,1.874V993.8q0,.785.563.785a1.291,1.291,0,0,0,.518-.174Zm-4.78-4.769a2.832,2.832,0,0,1-.73.543,1.937,1.937,0,0,0-1.046,1.86q0,1.671.723,1.672,1.053,0,1.053-1.656Z" transform="translate(-748.077 -945.673)" fill="#9a0c19"/><path d="M887.883,975.744v.946h-1.5v5.967c0,.374.131.561.4.561.192,0,.306-.127.344-.378l.962.084q-.4,1.321-2.535,1.322-2.541,0-2.541-1.958v-5.6h-1.129v-.946h1.129v-1.491A16.019,16.019,0,0,0,886.385,973v2.746Z" transform="translate(-791.743 -934.347)" fill="#9a0c19"/><path d="M921.378,981.629V973.2a26.986,26.986,0,0,0,3.374-.227v8.653Zm1.71-11.707q1.571,0,1.57,1.1t-1.57,1.105q-1.573,0-1.574-1.105T923.089,969.922Z" transform="translate(-824.128 -931.824)" fill="#9a0c19"/><path d="M952.907,986.931q4.624,0,4.623,4.42t-4.623,4.418q-4.633,0-4.633-4.418T952.907,986.931Zm-.009.747q-1.119,0-1.119,3.673t1.119,3.674q1.128,0,1.128-3.674T952.9,987.678Z" transform="translate(-846.182 -945.779)" fill="#9a0c19"/><path d="M1016.488,995.559h-3.376v-6.192c0-.631-.194-.944-.583-.944a1.231,1.231,0,0,0-1.027.748,3.484,3.484,0,0,0-.434,1.771v4.617h-3.374v-8.451a26.846,26.846,0,0,0,3.374-.208v1.581a3.806,3.806,0,0,1,3.072-1.575q2.347,0,2.348,2.161Z" transform="translate(-894.904 -945.754)" fill="#9a0c19"/><path d="M1108.361,971.508v7.665q0,3.942-4.817,3.942-4.8,0-4.8-3.942v-7.665h3.661v7.767a3.258,3.258,0,0,0,.477,2.059,2.254,2.254,0,0,0,1.76.551q2.489,0,2.488-2.711v-7.665Z" transform="translate(-969.562 -933.125)" fill="#9a0c19"/><path d="M1172.868,971.508l-3.153,3.607,4.65,7.815h-4.076l-2.959-5-.526.535v4.469h-3.662V971.508h3.662V976.6l4.344-5.088Z" transform="translate(-1022.366 -933.125)" fill="#9a0c19"/><g transform="translate(0 0)"><path d="M425.589,780.544a13.913,13.913,0,0,1,.075,3.541,17.492,17.492,0,0,1-2.193,8.45c-5.042-8.287-11.368-15.309-23.5-16.543a49.414,49.414,0,0,0-1.7,22.271c.507,2.841,1.343,5.579,3.208,6.873.045.015.06.074.134.074-2.059-.431-4.878-.193-6.221-1.9-1.059-1.354-1.253-3.957-1.507-6.2a72.437,72.437,0,0,1,1.447-21.259,84.414,84.414,0,0,0-13.158,1.845,21.825,21.825,0,0,1,3.655-9,9.887,9.887,0,0,1,1.716-2.306c1.164-.863,3.357-1.012,5.192-1.16a28.124,28.124,0,0,1,5.937.134c1.611-2.96,3.3-5.846,6.087-7.632a27.725,27.725,0,0,1,4.714,1.027,10.27,10.27,0,0,1-1.447,1.7,31.368,31.368,0,0,0-4.028,5.8c8.593,2.038,15.978,6.65,20.707,13A6.605,6.605,0,0,1,425.589,780.544Z" transform="translate(-382.004 -757.723)" fill="#9a0c19"/><path d="M549.3,906.424a18.853,18.853,0,0,1-4.1,4.359c-1.925-6.59-5.043-12.006-7.653-17.912C542.614,895.876,548.642,898.97,549.3,906.424Z" transform="translate(-509.398 -868.607)" fill="#131948"/><path d="M514.414,900.238a8.456,8.456,0,0,1,.477,1.369c-.089.8-1.76,1.235-2.252,1.636A132.107,132.107,0,0,0,501.972,880.9c-.075-.015-.045-.134-.06-.208,1.193.283,2.133.491,3.476.684,3.416,4.865,5.833,11.426,8.414,17.644C513.921,899.316,514.235,899.777,514.414,900.238Z" transform="translate(-480.183 -858.613)" fill="#9a0c19"/><path d="M492.428,906.031a12.984,12.984,0,0,1-7.37,1.9,7.2,7.2,0,0,1-2.193,0c-.582-.238-1.223-1.711-1.566-2.589-1.716-4.314-1.79-11.143-1.164-16.826a34.185,34.185,0,0,1,.955-5.594A118.084,118.084,0,0,1,492.428,906.031Z" transform="translate(-462.031 -860.448)" fill="#131948"/><path d="M461.951,757.723c.164.238-.373.253-.612.342a7.212,7.212,0,0,0-4.505,4.642c-1.1-.789-2.133-1.651-3.148-2.529C455.82,758.75,458.743,758.08,461.951,757.723Z" transform="translate(-440.639 -757.723)" fill="#131948"/><path d="M440.1,774.544a8.849,8.849,0,0,1,2.387,2.38c-.88.357-2.193.268-3.148.551-.537-.387-.671-1.19-1.149-1.637C438.8,775.392,439.5,775.02,440.1,774.544Z" transform="translate(-427.934 -771.524)" fill="#9a0c19"/><path d="M421.129,785.2c-1.641-.03-2.715.982-3.819,1.711a8.871,8.871,0,0,1,3.073-3.005A1.524,1.524,0,0,1,421.129,785.2Z" transform="translate(-410.812 -779.206)" fill="#131948"/><path d="M410.611,868.509c-1.223,7.706-3.237,19.965,1.164,25.827-2.954-1.414-5.281-2.723-7.176-5.371a10.1,10.1,0,0,1-1.641-3.005,15.124,15.124,0,0,1,.075-2.931c.209-4.3,2.521-8.2,4.64-11.113A18.941,18.941,0,0,1,410.611,868.509Z" transform="translate(-398.997 -848.618)" fill="#131948"/><path d="M397.131,868.924c.045.268-.269.4-.418.55a18.193,18.193,0,0,0-3.416,4.761,19.144,19.144,0,0,0-2.312,7.082,12.763,12.763,0,0,0,.4,4.032c-.552-1.354-1.76-2.827-1.85-4.642a8.448,8.448,0,0,1,.343-2.172,28.49,28.49,0,0,1,4.177-9.209A18.727,18.727,0,0,1,397.131,868.924Z" transform="translate(-388.038 -848.959)" fill="#9a0c19"/><path d="M385.316,870.056c.134-.03.149.059.075.059a21.275,21.275,0,0,1-1.641,2.8,13.353,13.353,0,0,0-1.507,7.706c-.88-2.425-1.835-6.635.134-8.658A17.177,17.177,0,0,1,385.316,870.056Z" transform="translate(-381.22 -849.883)" fill="#131948"/></g><path d="M616.866,971.508v1.148h-4.521v3.455h3.8v1.148h-3.8v4.527h5.288v1.145h-8.95V971.508Z" transform="translate(-567.731 -933.125)" fill="#9a0c19"/><path d="M608.8,802.356V771.248h16.118q12.453,0,12.453,7.634,0,5.424-7.514,6.95,9.054,1.551,9.054,8.251,0,8.272-12.187,8.272Zm10.515-17.571h3.239q4.487,0,4.487-5.7,0-5.264-4.753-5.264h-2.974Zm0,15h3q5.9,0,5.9-5.791,0-6.631-6.081-6.63h-2.815Z" transform="translate(-567.824 -768.82)" fill="#131948"/></svg>